<?xml version="1.0" encoding="utf-8"?>
<!-- Generator: Avocode 2.6.0 - http://avocode.com -->
<svg height="17" width="18" xmlns:xlink="http://www.w3.org/1999/xlink" xmlns="http://www.w3.org/2000/svg" viewBox="0 0 18 17">
    <path fill="#ffffff" fill-rule="evenodd" d="M 15.6 8.21 C 15.6 8.21 15.6 10.55 15.6 10.55 C 15.6 10.55 14.4 10.55 14.4 10.55 C 14.4 10.55 14.4 8.21 14.4 8.21 C 14.4 8.21 12 8.21 12 8.21 C 12 8.21 12 7.04 12 7.04 C 12 7.04 14.4 7.04 14.4 7.04 C 14.4 7.04 14.4 4.69 14.4 4.69 C 14.4 4.69 15.6 4.69 15.6 4.69 C 15.6 4.69 15.6 7.04 15.6 7.04 C 15.6 7.04 18 7.04 18 7.04 C 18 7.04 18 8.21 18 8.21 C 18 8.21 15.6 8.21 15.6 8.21 Z M 8.25 0.81 C 8.39 0.89 8.55 1.02 8.73 1.19 C 8.9 1.36 9.07 1.57 9.23 1.83 C 9.39 2.07 9.53 2.35 9.65 2.68 C 9.75 3 9.8 3.39 9.8 3.82 C 9.78 4.62 9.61 5.26 9.26 5.74 C 9.09 5.97 8.91 6.19 8.72 6.38 C 8.51 6.58 8.29 6.78 8.05 6.98 C 7.91 7.12 7.79 7.27 7.67 7.45 C 7.54 7.63 7.47 7.84 7.47 8.08 C 7.47 8.31 7.54 8.5 7.68 8.66 C 7.8 8.8 7.91 8.93 8.02 9.04 C 8.02 9.04 8.79 9.66 8.79 9.66 C 9.27 10.05 9.7 10.47 10.06 10.93 C 10.4 11.41 10.58 12.02 10.59 12.79 C 10.59 13.87 10.1 14.83 9.13 15.66 C 8.12 16.52 6.66 16.97 4.76 17 C 3.16 16.99 1.98 16.65 1.19 16 C 0.4 15.39 0 14.66 0 13.81 C 0 13.4 0.13 12.94 0.39 12.43 C 0.64 11.93 1.09 11.48 1.75 11.1 C 2.48 10.68 3.26 10.41 4.07 10.27 C 4.87 10.15 5.54 10.09 6.07 10.08 C 5.9 9.86 5.76 9.64 5.63 9.4 C 5.48 9.16 5.41 8.88 5.41 8.55 C 5.41 8.36 5.43 8.19 5.49 8.06 C 5.54 7.92 5.59 7.79 5.63 7.68 C 5.37 7.71 5.13 7.72 4.9 7.72 C 3.69 7.71 2.76 7.33 2.13 6.6 C 1.47 5.92 1.13 5.12 1.13 4.21 C 1.13 3.12 1.6 2.12 2.55 1.23 C 3.19 0.71 3.87 0.37 4.56 0.21 C 5.25 0.07 5.9 0 6.5 0 C 6.5 0 11.05 0 11.05 0 C 11.05 0 9.65 0.81 9.65 0.81 C 9.65 0.81 8.25 0.81 8.25 0.81 Z M 5.29 10.73 C 4.82 10.79 4.34 10.9 3.84 11.04 C 3.73 11.09 3.56 11.15 3.35 11.24 C 3.14 11.33 2.93 11.47 2.71 11.64 C 2.5 11.82 2.33 12.05 2.18 12.32 C 2.01 12.6 1.93 12.94 1.93 13.34 C 1.93 14.13 2.29 14.77 3.02 15.28 C 3.71 15.79 4.65 16.05 5.84 16.07 C 6.91 16.05 7.73 15.82 8.3 15.37 C 8.85 14.93 9.12 14.36 9.12 13.66 C 9.12 13.09 8.94 12.6 8.56 12.18 C 8.16 11.78 7.54 11.29 6.69 10.71 C 6.54 10.69 6.38 10.68 6.18 10.68 C 6.06 10.67 5.77 10.68 5.29 10.73 Z M 7.18 2.19 C 6.97 1.76 6.68 1.41 6.33 1.14 C 5.97 0.89 5.56 0.75 5.1 0.74 C 4.48 0.75 3.97 1 3.56 1.47 C 3.21 1.97 3.05 2.52 3.06 3.13 C 3.06 3.94 3.3 4.78 3.78 5.65 C 4.02 6.06 4.32 6.4 4.69 6.69 C 5.06 6.97 5.48 7.11 5.95 7.11 C 6.55 7.09 7.05 6.88 7.45 6.48 C 7.64 6.2 7.76 5.9 7.82 5.61 C 7.85 5.31 7.87 5.06 7.87 4.85 C 7.87 3.97 7.64 3.09 7.18 2.19 Z" />
</svg>